<svg width="546" height="644" viewBox="0 0 546 644" fill="none" xmlns="http://www.w3.org/2000/svg">
<g opacity="0.1" clip-path="url(#clip0)">
<path d="M237.901 537.877C238.856 537.195 240.085 536.922 241.177 537.195C242.269 537.331 243.361 537.877 244.043 538.832C244.043 538.832 245.408 540.606 246.773 542.243C248.138 544.017 249.503 545.654 249.503 545.654C251.005 547.564 250.868 550.293 248.821 551.794C248.821 551.794 247.319 552.885 244.999 554.523C242.678 556.16 239.539 558.343 236.399 560.526C229.984 564.619 223.159 568.576 223.159 568.576L228.073 544.426L237.901 537.877ZM231.485 580.583C231.485 580.583 234.488 578.946 238.72 576.08C243.088 573.351 248.548 569.668 253.871 565.574C256.465 563.528 259.058 561.618 261.379 559.707C263.699 557.661 265.883 555.887 267.658 554.25C271.207 551.112 273.527 548.928 273.527 548.928L273.527 573.624C273.527 573.624 271.889 574.989 269.432 577.035C266.975 579.082 263.426 581.811 259.877 584.54C256.328 587.132 252.643 589.724 249.776 591.635C248.411 592.59 247.183 593.408 246.364 593.954C245.545 594.5 244.999 594.773 244.999 594.773C242.678 596.273 239.129 595.728 237.218 593.818C237.218 593.818 235.58 592.044 233.806 590.27C232.987 589.451 232.168 588.496 231.485 587.814C230.939 587.132 230.53 586.723 230.53 586.723C228.619 584.54 229.165 581.811 231.485 580.583ZM235.307 510.179L240.221 486.029C240.221 486.029 241.586 488.895 244.043 493.397C246.5 498.036 250.049 503.63 254.008 509.497C256.055 512.362 258.103 515.091 260.15 517.82C261.242 519.184 262.198 520.412 263.153 521.64C264.109 522.868 265.064 523.96 266.02 524.915C269.569 529.008 272.162 531.737 272.162 531.737C273.8 533.511 273.8 536.24 272.162 537.877C272.162 537.877 270.661 539.378 269.023 540.879C267.385 542.379 265.883 543.88 265.883 543.88C264.928 544.699 263.836 545.108 262.744 545.108C261.652 545.108 260.423 544.562 259.604 543.607L235.307 510.179ZM268.067 488.349C269.432 486.712 271.48 486.711 272.845 488.485L273.527 489.44L273.527 514.136C273.527 514.136 270.661 510.725 267.931 507.314C266.566 505.677 265.201 503.903 264.245 502.675C263.29 501.311 262.607 500.492 262.607 500.492C261.379 498.718 261.515 495.989 263.017 494.352C263.017 494.352 263.29 493.943 263.836 493.397C264.382 492.851 264.928 492.169 265.61 491.351C266.839 489.85 268.067 488.349 268.067 488.349Z" fill="#EFD040"/>
<path d="M195.722 526.415C196.814 525.869 198.043 526.006 198.998 526.415C200.09 526.824 200.909 527.507 201.455 528.598C201.455 528.598 202.411 530.508 203.366 532.555C204.322 534.465 205.414 536.512 205.414 536.512C206.506 538.695 205.823 541.287 203.503 542.379C203.503 542.379 201.865 543.197 199.271 544.289C197.906 544.834 196.405 545.517 194.767 546.199C193.129 546.881 191.354 547.7 189.58 548.382C186.031 549.746 182.345 551.111 179.615 552.066C176.885 553.021 174.974 553.567 174.974 553.567L184.666 530.918L195.722 526.415ZM180.707 566.801C180.707 566.801 181.526 566.528 182.891 566.119C183.574 565.846 184.393 565.573 185.485 565.301C186.44 564.891 187.532 564.482 188.761 564.073C191.081 563.117 193.948 562.026 196.814 560.798C198.316 560.252 199.681 559.57 201.182 558.888C202.684 558.206 204.185 557.523 205.687 556.841C208.69 555.477 211.556 553.976 214.286 552.612C217.016 551.111 219.473 549.746 221.521 548.518C225.616 546.063 228.346 544.425 228.346 544.425L223.432 568.575C223.432 568.575 221.521 569.53 218.654 571.168C215.788 572.668 211.829 574.715 207.734 576.625C203.776 578.399 199.544 580.173 196.405 581.537C193.265 582.901 191.081 583.584 191.081 583.584C188.488 584.539 185.212 583.447 183.71 581.128C183.71 581.128 182.345 579.081 181.117 576.898C179.888 574.715 178.66 572.668 178.66 572.668C177.158 570.212 178.25 567.756 180.707 566.801ZM198.725 498.717L208.417 476.068C208.417 476.068 208.417 476.341 208.553 476.614C208.69 477.023 208.826 477.569 208.963 478.251C209.372 479.616 209.918 481.662 210.601 484.118C211.01 485.346 211.42 486.711 211.829 488.075C212.239 489.44 212.785 490.94 213.331 492.441C214.423 495.443 215.651 498.581 217.016 501.856C218.381 505.13 219.883 508.132 221.384 511.27C222.203 512.771 222.886 514.272 223.568 515.636C224.251 517.001 225.07 518.229 225.616 519.456C228.346 524.095 230.257 527.37 230.257 527.37C231.485 529.417 230.939 532.145 229.028 533.373C229.028 533.373 227.254 534.601 225.343 535.693C223.432 536.784 221.657 538.012 221.657 538.012C220.565 538.695 219.337 538.831 218.245 538.558C217.153 538.285 216.197 537.467 215.515 536.512L198.725 498.717ZM235.171 483.982C236.809 482.617 238.856 483.027 239.675 485.073L240.085 486.029L235.171 510.179C235.171 510.179 232.987 506.222 231.076 502.401C230.12 500.491 229.165 498.581 228.482 497.08C227.8 495.579 227.39 494.624 227.39 494.624C226.435 492.578 227.254 489.985 229.028 488.621C229.028 488.621 229.438 488.348 229.984 487.939C230.53 487.529 231.349 486.984 232.168 486.301C233.669 485.21 235.171 483.982 235.171 483.982Z" fill="#EFD040"/>
<path d="M156.683 506.631C159.003 506.085 161.324 507.586 161.87 509.906C161.87 509.906 162.416 511.952 162.962 514.135C163.508 516.318 164.19 518.365 164.19 518.365C164.873 520.685 163.508 523.14 161.187 523.686C161.187 523.686 159.413 524.096 156.683 524.778C155.318 525.051 153.68 525.46 151.905 525.869C150.131 526.279 148.356 526.552 146.445 526.824C142.623 527.507 138.801 528.052 135.935 528.462C133.068 528.735 131.157 529.007 131.157 529.007L145.217 508.678L156.683 506.631ZM133.751 543.197C133.751 543.197 134.57 543.061 136.071 542.924C137.573 542.788 139.62 542.515 142.214 542.106C144.807 541.696 147.674 541.151 150.677 540.605C153.816 539.923 156.956 539.377 160.232 538.558C166.647 536.921 172.79 535.284 177.431 533.646C181.935 532.146 184.938 531.054 184.938 531.054L175.247 553.703C175.247 553.703 173.199 554.385 170.06 555.204C168.422 555.613 166.647 556.159 164.6 556.705C163.644 556.978 162.552 557.251 161.46 557.524C160.368 557.796 159.276 558.069 158.321 558.206C153.953 559.161 149.585 560.116 146.172 560.798C144.534 561.071 143.169 561.344 142.077 561.48C141.122 561.617 140.576 561.753 140.576 561.753C137.846 562.163 134.843 560.389 133.887 557.796C133.887 557.796 133.614 557.251 133.341 556.296C133.068 555.477 132.659 554.249 132.249 553.021C131.43 550.702 130.611 548.382 130.611 548.382C129.656 545.79 131.157 543.47 133.751 543.197ZM165.282 480.025L179.342 459.832C179.342 459.832 179.342 460.651 179.478 462.152C179.478 463.652 179.751 465.699 180.024 468.155C180.297 470.611 180.57 473.613 180.98 476.887C181.526 480.025 182.072 483.436 182.754 486.847C183.437 490.395 184.256 493.669 185.075 496.944C185.894 500.082 186.713 503.22 187.668 505.813C189.306 510.861 190.671 514.408 190.671 514.408C191.49 516.591 190.398 519.184 188.214 520.002C188.214 520.002 186.167 520.821 184.119 521.503C182.072 522.322 180.024 523.004 180.024 523.004C177.704 523.823 175.11 522.458 174.428 520.275L165.282 480.025ZM203.912 473.067C205.823 472.112 207.734 472.93 208.143 474.977L208.416 476.069L198.725 498.718C198.725 498.718 197.36 494.488 196.268 490.395C195.995 489.303 195.722 488.348 195.449 487.393C195.176 486.438 195.039 485.483 194.766 484.664C194.357 483.027 194.22 482.072 194.22 482.072C193.811 479.889 195.039 477.433 196.95 476.614C196.95 476.614 198.725 475.796 200.499 474.977C201.318 474.568 202.274 474.158 202.956 473.749C203.502 473.203 203.912 473.067 203.912 473.067Z" fill="#EFD040"/>
<path d="M122.422 479.343C124.879 479.343 126.79 481.117 126.926 483.573C126.926 483.573 126.926 485.756 127.199 487.939C127.336 490.122 127.609 492.305 127.609 492.305C127.882 494.761 126.107 496.808 123.514 496.944C123.514 496.944 121.603 496.944 118.873 497.081C118.19 497.081 117.371 497.081 116.552 497.081C115.733 497.081 114.914 497.081 113.959 497.081C112.184 497.081 110.273 496.944 108.362 496.944C104.54 496.808 100.582 496.671 97.7153 496.399C94.8488 496.126 92.9378 495.989 92.9378 495.989L110.819 478.934L122.422 479.343ZM92.6647 510.588C92.6647 510.588 96.0773 510.861 101.128 511.134C103.585 511.271 106.588 511.271 109.727 511.271C112.867 511.271 116.143 511.271 119.419 511.134C122.695 510.998 125.971 510.725 129.11 510.588C132.113 510.316 134.843 510.179 137.3 509.77C142.078 509.224 145.217 508.678 145.217 508.678L131.158 528.872C131.158 528.872 128.974 529.008 125.698 529.417C124.06 529.554 122.149 529.69 120.101 529.827C118.054 529.963 115.87 529.963 113.686 530.099C111.502 530.099 109.181 530.236 107.134 530.236C106.042 530.236 105.086 530.236 104.131 530.236C103.175 530.236 102.22 530.236 101.401 530.236C97.9883 530.099 95.6678 529.963 95.6678 529.963C92.9378 529.827 90.2078 527.507 89.7983 524.778C89.7983 524.778 89.3888 522.322 89.1158 519.866C88.8428 517.41 88.4333 514.955 88.4333 514.955C88.0238 512.362 90.0712 510.452 92.6647 510.588ZM136.208 455.057L154.09 438.002C154.09 438.002 153.953 438.821 153.68 440.321C153.544 441.822 153.134 443.869 152.861 446.325C152.315 451.237 151.769 458.195 151.906 465.154C151.769 472.249 152.452 479.207 152.861 484.665C153.134 487.394 153.407 489.577 153.68 491.214C153.953 492.851 154.09 493.67 154.09 493.67C154.499 495.989 152.861 498.309 150.541 498.718C150.541 498.718 148.357 499.127 146.173 499.4C145.081 499.537 143.989 499.673 143.17 499.81C142.351 499.946 141.805 499.946 141.805 499.946C139.484 500.219 137.164 498.445 136.891 496.126L136.208 455.057ZM175.52 456.012C177.568 455.33 179.342 456.558 179.342 458.741L179.342 459.832L165.283 480.026C165.283 480.026 164.737 475.66 164.464 471.294C164.327 469.11 164.191 466.927 164.191 465.29C164.191 463.653 164.191 462.561 164.191 462.561C164.191 460.378 165.965 458.195 168.013 457.786C168.013 457.786 169.924 457.377 171.835 456.831C173.609 456.558 175.52 456.012 175.52 456.012Z" fill="#EFD040"/>
<path d="M94.3024 445.779C96.7594 446.188 98.2609 448.372 97.8514 450.827C97.8514 450.827 97.5784 453.011 97.1689 455.194C97.0324 456.285 96.8959 457.377 96.7594 458.195C96.6229 459.014 96.623 459.56 96.623 459.56C96.35 462.016 94.1659 463.653 91.7089 463.244C91.7089 463.244 91.2995 463.107 90.4805 463.107C89.6615 462.971 88.433 462.834 87.068 462.561C84.338 462.016 80.6525 461.197 76.8305 460.378C73.0085 459.56 69.4595 458.468 66.593 457.649C63.7265 456.831 61.952 456.285 61.952 456.285L82.8364 443.187L94.3024 445.779ZM58.9489 470.475C58.9489 470.475 62.3615 471.43 67.2755 472.658C69.7325 473.204 72.4624 474.022 75.6019 474.568C78.7414 475.25 82.0174 475.796 85.1569 476.342C88.2964 476.888 91.7089 477.297 94.7119 477.706C97.7149 478.116 100.581 478.388 102.902 478.525C105.222 478.798 107.27 478.798 108.635 478.934C110 478.934 110.819 479.071 110.819 479.071L92.9374 496.126C92.9374 496.126 90.7534 495.853 87.4775 495.58C84.2015 495.171 79.97 494.488 75.4655 493.806C73.2815 493.397 71.0974 492.988 68.9134 492.578C66.8659 492.169 64.955 491.76 63.317 491.35C60.041 490.532 57.7205 489.986 57.7205 489.986C56.3555 489.713 55.127 488.758 54.308 487.666C53.489 486.575 52.943 485.074 53.0795 483.71C53.0795 483.71 53.216 481.254 53.3525 478.798C53.489 476.342 53.6255 473.886 53.6255 473.886C53.762 472.521 54.3079 471.43 55.2634 470.884C56.3554 470.338 57.5839 470.202 58.9489 470.475ZM112.593 424.767L133.478 411.669C133.478 411.669 132.249 414.671 130.748 419.582C129.929 422.038 129.246 424.767 128.291 427.905C127.472 431.044 126.653 434.455 125.97 437.866C125.288 441.277 124.605 444.824 124.196 448.099C123.786 451.373 123.377 454.511 123.104 457.24C122.831 459.969 122.694 462.288 122.558 463.789C122.421 465.427 122.421 466.245 122.421 466.245C122.285 468.565 120.374 470.475 117.917 470.475C117.917 470.475 115.733 470.475 113.549 470.338C112.457 470.338 111.365 470.202 110.546 470.202C109.727 470.202 109.181 470.066 109.181 470.066C106.724 469.929 104.949 467.746 105.086 465.29L112.593 424.767ZM150.95 433.499C152.997 433.363 154.499 434.864 154.089 436.91L153.953 438.002L136.071 455.057C136.071 455.057 136.208 453.966 136.344 452.328C136.481 450.691 136.754 448.508 137.027 446.325C137.709 441.959 138.392 437.866 138.392 437.866C138.801 435.683 140.985 434.045 143.169 433.909C143.169 433.909 145.08 433.772 147.128 433.772C149.039 433.636 150.95 433.499 150.95 433.499Z" fill="#EFD040"/>
<path d="M73.5539 407.302C75.7379 408.257 76.9663 410.713 76.0108 413.033C76.0108 413.033 75.1919 415.079 74.5094 417.126C74.0999 418.217 73.8269 419.172 73.5539 419.991C73.2809 420.81 73.1444 421.355 73.1444 421.355C72.4619 423.675 70.0048 424.903 67.5478 424.084C67.5478 424.084 67.1384 423.948 66.3194 423.675C65.5004 423.402 64.5449 422.993 63.1799 422.447C60.5864 421.355 57.0374 419.855 53.6249 418.354C50.2124 416.716 46.7999 414.943 44.2064 413.578C41.6129 412.214 39.8384 411.259 39.8384 411.259L63.0433 402.663L73.5539 407.302ZM33.8324 424.357C33.8324 424.357 34.5149 424.766 35.8799 425.449C37.2449 426.131 39.1559 427.086 41.4764 428.177C43.7969 429.269 46.3904 430.497 49.2569 431.725C52.1234 432.953 55.2629 434.181 58.2659 435.409C64.2718 437.865 70.6874 439.775 75.1919 441.139C77.5124 441.822 79.4233 442.367 80.7883 442.64C82.1533 442.913 82.9724 443.186 82.9724 443.186L62.0878 456.284C62.0878 456.284 61.5419 456.148 60.5864 455.875C59.6309 455.602 58.4024 455.193 56.7644 454.647C53.6249 453.555 49.5299 452.055 45.2984 450.554C43.1144 449.735 41.2034 448.916 39.1559 448.098C37.2449 447.279 35.4704 446.461 33.8324 445.778C30.6929 444.277 28.6453 443.322 28.6453 443.322C26.1883 442.094 24.6869 438.956 25.3694 436.227C25.3694 436.227 26.0518 433.772 26.5978 431.452C26.8708 430.224 27.2804 429.133 27.4169 428.177C27.6899 427.222 27.8264 426.677 27.8264 426.677C28.9184 424.084 31.5119 423.129 33.8324 424.357ZM95.6669 390.383L118.872 381.788C118.872 381.788 117.097 384.516 114.64 389.019C113.958 390.111 113.275 391.338 112.593 392.703C111.91 394.067 111.228 395.432 110.545 396.796C109.18 399.661 107.542 402.8 106.177 406.074C104.812 409.212 103.584 412.487 102.355 415.761C101.809 417.399 101.263 418.899 100.717 420.264C100.308 421.765 99.7619 423.129 99.3524 424.357C98.5334 426.95 97.8509 429.133 97.4414 430.77C97.1684 431.589 97.0319 432.134 97.0319 432.544C96.8954 432.953 96.8953 433.226 96.8953 433.226C96.3493 435.545 94.0288 437.046 91.7083 436.5C91.7083 436.5 89.5244 436.091 87.4769 435.409C85.4294 434.863 83.2453 434.317 83.2453 434.317C80.9248 433.635 79.4233 431.179 80.1058 428.86L95.6669 390.383ZM131.566 406.62C133.75 406.893 134.706 408.666 134.023 410.713L133.614 411.805L112.729 424.903C112.729 424.903 113.002 423.811 113.548 422.311C113.958 420.81 114.777 418.627 115.459 416.58C116.142 414.533 116.961 412.487 117.507 410.986C117.78 410.304 118.053 409.622 118.189 409.212C118.326 408.803 118.462 408.53 118.462 408.53C119.281 406.483 121.738 405.255 123.922 405.528C123.922 405.528 124.468 405.665 125.151 405.665C125.833 405.801 126.925 405.938 127.881 406.074C129.655 406.347 131.566 406.62 131.566 406.62Z" fill="#EFD040"/>
<path d="M61.133 365.415C62.0885 366.097 62.771 367.053 62.9075 368.144C63.1805 369.236 63.0439 370.464 62.3614 371.419C62.3614 371.419 61.2694 373.329 60.0409 375.103C58.9489 377.013 57.7205 378.923 57.7205 378.923C56.492 381.106 53.762 381.788 51.7145 380.424C51.7145 380.424 50.213 379.332 47.8925 377.831C45.572 376.194 42.4325 374.147 39.293 371.828C36.29 369.509 33.2869 367.189 30.9664 365.279C29.8744 364.324 28.9189 363.505 28.2364 362.959C27.5539 362.414 27.1444 362.141 27.1444 362.141L51.578 358.457L61.133 365.415ZM18.6814 374.011C18.6814 374.011 19.3639 374.557 20.4559 375.512C21.5479 376.467 23.3225 377.831 25.37 379.332C29.465 382.47 34.7885 386.291 40.385 389.838C43.115 391.612 45.9815 393.386 48.575 394.887C51.305 396.387 53.762 397.752 55.8095 398.843C57.9935 399.935 59.6315 400.89 60.86 401.572C61.406 401.845 61.9519 402.118 62.3614 402.254C62.6344 402.391 62.9075 402.527 62.9075 402.527L39.7025 411.123C39.7025 411.123 39.1565 410.85 38.3375 410.441C37.5185 410.031 36.29 409.349 34.925 408.531C32.0585 406.893 28.3729 404.574 24.5509 402.118C20.8654 399.662 17.18 397.07 14.45 395.023C13.085 394.068 11.8565 393.113 11.0375 392.567C10.2185 392.021 9.80892 391.612 9.80892 391.612C7.62492 389.975 6.80594 386.427 8.03444 383.971C8.03444 383.971 9.1264 381.788 10.2184 379.605C10.7644 378.514 11.3105 377.422 11.72 376.603C12.1295 375.785 12.4025 375.239 12.4025 375.239C14.0405 372.783 16.6339 372.374 18.6814 374.011ZM86.1125 353.409L110.546 349.725C110.546 349.725 110 350.27 109.044 351.362C108.089 352.453 106.724 353.954 104.949 355.864C101.537 359.685 97.442 365.006 93.2105 370.736C91.2995 373.602 89.3884 376.467 87.6139 379.332C86.7949 380.697 85.8395 382.197 85.0205 383.425C84.338 384.79 83.519 386.018 82.973 387.246C80.3795 392.021 78.7414 395.296 78.7414 395.296C77.6494 397.479 75.1924 398.434 73.0084 397.342C73.0084 397.342 71.0975 396.387 69.05 395.432C67.139 394.477 65.0914 393.522 65.0914 393.522C62.9074 392.431 61.952 389.702 63.1805 387.519L86.1125 353.409ZM117.917 376.467C119.964 377.149 120.647 379.059 119.418 380.97L118.872 381.925L95.6675 390.52C95.6675 390.52 96.2135 389.565 97.0325 388.064C97.8515 386.564 98.9435 384.79 100.036 382.88C101.128 380.97 102.219 379.196 103.175 377.831C104.13 376.467 104.676 375.648 104.676 375.648C105.905 373.875 108.635 373.056 110.546 373.875C110.546 373.875 110.956 374.011 111.638 374.284C112.321 374.557 113.276 374.966 114.095 375.239C116.142 375.785 117.917 376.467 117.917 376.467Z" fill="#EFD040"/>
<path d="M57.3108 321.891C58.1298 322.709 58.5393 323.937 58.5393 325.029C58.5393 326.12 58.1298 327.212 57.3108 328.167C57.3108 328.167 55.8094 329.804 54.3079 331.305C52.8064 332.942 51.3049 334.58 51.3049 334.58C49.6669 336.353 46.9369 336.626 45.1624 334.852C45.1624 334.852 43.7973 333.488 41.8863 331.578C39.9753 329.531 37.2453 326.802 34.6518 323.937C29.6013 318.343 24.6874 312.067 24.6874 312.067L49.3938 313.295L57.3108 321.891ZM14.0404 321.891C14.0404 321.891 14.5864 322.573 15.5419 323.664C16.4974 324.756 17.8624 326.393 19.6369 328.303C23.0494 332.124 27.4174 337.036 32.1949 341.675C34.5154 343.994 36.9723 346.177 39.1563 348.224C41.4768 350.27 43.6609 352.044 45.4354 353.681C49.1209 356.683 51.5779 358.593 51.5779 358.593L27.1443 362.277C27.1443 362.277 25.5063 360.776 23.0494 358.73C20.5924 356.547 17.3164 353.545 14.1769 350.407C11.0374 347.269 8.03434 343.994 5.71384 341.538C4.62184 340.31 3.52985 339.219 2.98384 338.536C2.30134 337.854 2.02833 337.308 2.02833 337.308C0.253829 335.262 0.117393 331.714 1.75539 329.531C1.75539 329.531 3.25683 327.621 4.75832 325.575C5.44083 324.619 6.25988 323.664 6.94237 322.982C7.48837 322.3 7.8979 321.754 7.8979 321.754C9.67239 319.708 12.4024 319.708 14.0404 321.891ZM84.2013 315.069L108.908 316.297C108.908 316.297 106.178 318.207 102.219 321.208C98.1243 324.347 93.0739 328.713 87.7504 333.488C85.1569 335.944 82.8363 338.4 80.5158 340.856C79.4238 342.084 78.1953 343.312 77.2398 344.403C76.1478 345.495 75.3288 346.586 74.3733 347.678C70.9608 351.771 68.6404 354.773 68.6404 354.773C67.1389 356.683 64.4089 357.092 62.4979 355.728C62.4979 355.728 60.7234 354.363 59.0854 353.135C57.3109 351.771 55.6729 350.407 55.6729 350.407C54.7174 349.588 54.1714 348.497 54.0349 347.405C53.8984 346.314 54.3078 345.086 55.1268 344.13L84.2013 315.069ZM110.682 344.13C112.593 345.222 112.73 347.269 111.228 348.769L110.409 349.588L85.9758 353.272C85.9758 353.272 88.8424 349.861 91.8454 346.723C93.3469 345.086 94.7119 343.585 95.9404 342.493C97.1689 341.402 97.8513 340.583 97.8513 340.583C99.4893 339.082 102.219 338.809 103.994 340.037C103.994 340.037 104.403 340.31 104.949 340.719C105.632 341.129 106.314 341.674 107.27 342.22C109.044 343.175 110.682 344.13 110.682 344.13Z" fill="#EFD040"/>
<path d="M62.2251 278.367C62.9076 279.322 63.044 280.55 62.771 281.641C62.6345 282.733 61.9521 283.688 60.9966 284.506C60.9966 284.506 59.2221 285.734 57.4476 287.099C55.6731 288.463 53.8986 289.691 53.8986 289.691C51.8511 291.192 49.1211 290.783 47.7561 288.736C47.7561 288.736 46.8006 287.235 45.1626 284.779C43.6611 282.46 41.6136 279.185 39.7026 275.911C37.7916 272.636 36.0171 269.225 34.6521 266.633C33.9696 265.268 33.4236 264.177 33.0141 263.495C32.6046 262.676 32.4681 262.267 32.4681 262.267L56.3556 268.406L62.2251 278.367ZM19.9101 269.771C19.9101 269.771 20.3196 270.589 21.0021 271.817C21.6846 273.182 22.7766 274.956 24.0051 277.275C26.5986 281.778 29.8746 287.372 33.6966 292.829C35.6076 295.558 37.3821 298.15 39.1566 300.606C41.0676 303.062 42.8421 305.245 44.3436 307.156C45.8451 309.066 47.0736 310.567 48.0291 311.658C48.9846 312.75 49.3941 313.295 49.3941 313.295L24.6876 312.067C24.6876 312.067 24.4146 311.658 23.7321 310.839C23.1861 310.021 22.3671 308.929 21.4116 307.701C19.5006 305.109 16.9071 301.562 14.3136 297.741C11.8566 294.057 9.53612 290.237 7.76163 287.235C6.94263 285.734 6.12366 284.506 5.57766 283.688C5.03166 282.869 4.75861 282.323 4.75861 282.323C3.39361 280.004 4.07611 276.456 6.12361 274.683C6.12361 274.683 8.03462 273.045 9.80912 271.408C10.7646 270.589 11.7202 269.771 12.4026 269.225C13.0852 268.679 13.6311 268.27 13.6311 268.27C15.9516 266.769 18.6816 267.315 19.9101 269.771ZM89.9345 277.139L113.822 283.279C113.822 283.279 113.003 283.551 111.775 284.234C110.41 284.779 108.499 285.734 106.315 286.826C101.674 289.009 95.8041 292.284 89.7981 295.967C86.7951 297.878 83.9285 299.788 81.1985 301.698C79.8335 302.653 78.4686 303.608 77.2401 304.563C76.0116 305.518 74.9196 306.337 73.8276 307.156C69.5961 310.567 66.7296 312.886 66.7296 312.886C64.9551 314.387 62.0886 314.387 60.5871 312.477C60.5871 312.477 59.2221 310.84 57.7206 309.202C56.3556 307.565 54.8541 305.791 54.8541 305.791C54.0351 304.836 53.7621 303.608 53.7621 302.517C53.8986 301.425 54.4446 300.334 55.4001 299.515L89.9345 277.139ZM110.137 310.976C111.775 312.477 111.638 314.523 109.727 315.615L108.772 316.297L84.0651 315.069C84.0651 315.069 84.338 314.933 84.611 314.66C85.0205 314.387 85.5665 313.978 86.249 313.432C87.614 312.477 89.3885 311.112 91.0265 309.884C92.801 308.656 94.5755 307.429 95.804 306.473C97.169 305.655 98.1245 304.973 98.1245 304.973C100.036 303.745 102.766 304.154 104.267 305.655C104.267 305.655 104.676 306.064 105.086 306.473C105.632 307.019 106.315 307.701 106.997 308.384C108.635 309.612 110.137 310.976 110.137 310.976Z" fill="#EFD040"/>
<path d="M75.8751 236.888C76.6941 239.207 75.6021 241.663 73.4181 242.618C73.4181 242.618 71.3706 243.437 69.4596 244.392C67.4121 245.347 65.3646 246.166 65.3646 246.166C63.1806 247.257 60.587 246.302 59.6315 243.982C59.6315 243.982 58.949 242.209 57.8571 239.616C57.311 238.252 56.7651 236.751 56.0826 235.114C55.8096 234.295 55.4001 233.34 55.1271 232.522C54.8541 231.703 54.581 230.748 54.1715 229.793C52.943 226.245 51.8511 222.425 51.0321 219.696C50.6226 218.332 50.213 217.104 50.0765 216.285C49.8035 215.466 49.8035 215.057 49.8035 215.057L71.9165 225.972L75.8751 236.888ZM36.1535 219.696C36.1535 219.696 36.4265 220.515 36.836 222.016C37.2455 223.38 37.7916 225.427 38.6106 227.883C39.4296 230.338 40.3851 233.067 41.477 236.069C42.0231 237.57 42.5691 239.071 43.1151 240.571C43.7976 242.072 44.3435 243.573 45.026 245.21C46.2545 248.212 47.6196 251.214 48.8481 253.943C50.0766 256.672 51.4415 259.264 52.5335 261.447C54.7175 265.677 56.219 268.405 56.219 268.405L32.3315 262.266C32.3315 262.266 31.376 260.355 30.011 257.354C28.646 254.352 26.7351 250.395 25.0971 246.166C23.4591 242.072 21.9575 237.843 20.729 234.568C20.183 232.931 19.637 231.566 19.364 230.611C19.091 229.656 18.9546 229.111 18.9546 229.111C18.1356 226.518 19.5005 223.244 21.821 221.879C21.821 221.879 22.367 221.606 23.186 221.06C24.005 220.651 25.097 219.969 26.189 219.423C28.373 218.332 30.5571 217.104 30.5571 217.104C32.8775 216.012 35.471 217.24 36.1535 219.696ZM103.312 241.254L125.425 252.169C125.425 252.169 124.606 252.305 123.104 252.578C121.739 252.851 119.692 253.397 117.235 253.943C114.778 254.625 111.775 255.307 108.772 256.262C105.769 257.217 102.493 258.309 99.0801 259.537C97.4421 260.083 95.804 260.765 94.166 261.447C92.528 262.129 91.0266 262.811 89.5251 263.494C86.3856 264.858 83.519 266.086 81.1985 267.314C76.421 269.77 73.1451 271.544 73.1451 271.544C71.0976 272.635 68.3675 272.089 67.139 269.906C67.139 269.906 66.0471 267.996 64.9551 266.086C63.8631 264.176 62.9076 262.266 62.9076 262.266C62.3616 261.174 62.2251 259.946 62.4981 258.855C62.9076 257.763 63.5901 256.808 64.6821 256.262L103.312 241.254ZM116.143 278.366C117.371 280.139 116.825 282.049 114.914 282.868L113.822 283.277L89.9346 277.138C89.9346 277.138 93.893 275.227 97.8515 273.454C99.899 272.635 101.674 271.68 103.312 271.134C104.813 270.588 105.769 270.179 105.769 270.179C107.816 269.36 110.41 270.316 111.638 272.089C111.638 272.089 112.73 273.727 113.822 275.364C115.051 276.728 116.143 278.366 116.143 278.366Z" fill="#EFD040"/>
<path d="M97.5789 198.821C97.9884 201.277 96.3505 203.46 94.03 203.869C94.03 203.869 91.846 204.279 89.7985 204.824C87.6145 205.37 85.4305 205.779 85.4305 205.779C82.9735 206.325 80.653 204.961 80.2435 202.505C80.2435 202.505 79.9704 200.595 79.4244 197.866C79.1514 196.501 78.8785 194.864 78.6055 193.09C78.3325 191.317 78.196 189.406 77.923 187.633C77.5135 183.812 77.104 179.992 76.831 176.99C76.6945 174.125 76.558 172.215 76.558 172.215L96.0775 187.36L97.5789 198.821ZM62.0889 174.125C62.0889 174.125 62.3619 177.536 62.7714 182.584C63.0444 185.177 63.454 188.042 63.8635 191.18C64.1365 192.681 64.4095 194.318 64.546 195.956C64.6825 196.774 64.819 197.593 64.9555 198.412C65.092 199.23 65.2284 200.049 65.5014 200.868C66.8664 207.417 68.2314 213.556 69.5964 218.332C70.9614 222.971 71.7805 225.973 71.7805 225.973L49.6675 215.057C49.6675 215.057 49.1215 213.011 48.439 209.736C47.7565 206.598 46.6645 202.232 45.982 197.866C45.163 193.5 44.4805 188.997 44.071 185.586C43.6615 182.175 43.3885 179.992 43.3885 179.992C43.1155 177.263 45.0265 174.262 47.62 173.443C47.62 173.443 48.166 173.306 49.1215 173.034C50.0769 172.761 51.169 172.351 52.3975 172.079C54.718 171.396 57.175 170.714 57.175 170.714C59.7685 169.896 61.9524 171.533 62.0889 174.125ZM123.65 208.781L143.17 223.926C143.17 223.926 142.351 223.926 140.849 223.926C140.167 223.926 139.211 223.926 138.119 223.926C137.164 223.926 135.935 224.062 134.707 224.062C132.25 224.199 129.247 224.335 125.971 224.608C122.831 224.881 119.419 225.427 115.87 225.836C114.095 226.109 112.321 226.382 110.683 226.655C109.045 226.928 107.27 227.337 105.769 227.61C102.493 228.292 99.3534 228.974 96.7599 229.656C91.573 231.021 88.0239 232.249 88.0239 232.249C85.7034 232.931 83.2464 231.703 82.5639 229.52C82.5639 229.52 81.8814 227.473 81.1989 225.427C80.5164 223.38 79.8339 221.197 79.8339 221.197C79.1514 218.878 80.653 216.422 82.9735 215.74L123.65 208.781ZM128.701 247.667C129.656 249.577 128.701 251.487 126.517 251.896L125.425 252.169L103.312 241.254C103.312 241.254 107.68 240.162 111.775 239.207C112.867 238.934 113.822 238.798 114.914 238.525C115.87 238.389 116.825 238.116 117.644 237.979C119.282 237.707 120.238 237.57 120.238 237.57C122.422 237.161 124.742 238.662 125.561 240.572C125.561 240.572 126.244 242.345 127.063 244.119C127.472 245.074 127.745 245.893 128.155 246.575C128.428 247.257 128.701 247.667 128.701 247.667Z" fill="#EFD040"/>
<path d="M126.516 166.075C126.379 168.531 124.468 170.441 122.011 170.305C122.011 170.305 121.465 170.305 120.646 170.305C119.827 170.305 118.735 170.305 117.643 170.305C115.459 170.305 113.275 170.441 113.275 170.441C110.818 170.577 108.771 168.667 108.771 166.211C108.771 166.211 108.771 164.301 108.908 161.436C108.908 158.571 109.181 154.887 109.59 151.066C109.727 149.156 109.863 147.246 110.136 145.472C110.272 143.699 110.545 142.061 110.682 140.561C111.091 137.695 111.364 135.785 111.364 135.785L127.471 154.477L126.516 166.075ZM96.759 134.694C96.759 134.694 96.3495 138.105 95.8035 143.153C95.667 144.381 95.5305 145.745 95.394 147.246C95.2575 148.747 95.2575 150.248 95.121 151.749C94.9845 154.887 94.848 158.161 94.7115 161.436C94.7115 164.71 94.7114 167.985 94.8479 171.123C94.9844 174.125 94.9845 176.854 95.2575 179.31C95.667 184.085 95.94 187.223 95.94 187.223L76.557 172.215C76.557 172.215 76.4205 170.032 76.284 166.757C76.284 165.12 76.1475 163.21 76.1475 161.163C76.1475 159.116 76.1475 156.933 76.284 154.75C76.4205 150.384 76.557 145.745 76.83 142.471C77.103 139.06 77.3759 136.877 77.3759 136.877C77.6489 134.148 79.9694 131.555 82.8359 131.283C82.8359 131.283 85.293 131.01 87.75 130.873C90.207 130.737 92.664 130.464 92.664 130.464C95.2575 130.055 97.032 132.101 96.759 134.694ZM150.13 180.947L166.238 199.639C166.238 199.639 165.418 199.503 164.053 199.23C162.688 198.957 160.505 198.548 158.048 198.139C155.591 197.729 152.587 197.32 149.448 197.047C146.172 196.638 142.76 196.365 139.347 196.228C132.249 195.819 125.288 195.955 119.828 196.228C117.098 196.365 114.913 196.638 113.275 196.774C111.637 196.911 110.818 197.047 110.818 197.047C108.498 197.32 106.314 195.683 105.904 193.227C105.904 193.227 105.631 191.044 105.358 188.861C105.222 187.769 105.085 186.677 105.085 185.859C105.085 185.04 104.949 184.494 104.949 184.494C104.812 182.038 106.587 179.992 109.044 179.719L150.13 180.947ZM147.128 220.105C147.674 222.152 146.308 223.789 144.261 223.789L143.169 223.789L123.65 208.644C123.65 208.644 128.017 208.372 132.385 208.235C136.753 208.235 140.985 208.372 140.985 208.372C143.169 208.372 145.216 210.282 145.626 212.465C145.626 212.465 146.035 214.375 146.308 216.285C146.718 218.332 147.128 220.105 147.128 220.105Z" fill="#EFD040"/>
<path d="M161.46 139.742C160.914 142.062 158.594 143.562 156.273 143.017C156.273 143.017 154.089 142.607 151.905 142.062C150.813 141.789 149.721 141.652 148.902 141.516C148.083 141.379 147.537 141.243 147.537 141.243C145.08 140.834 143.579 138.65 143.988 136.195C143.988 136.195 144.125 135.785 144.261 134.967C144.398 134.148 144.671 133.056 145.08 131.692C145.763 128.963 146.718 125.279 147.81 121.595C148.083 120.64 148.356 119.685 148.629 118.867C148.902 117.912 149.175 117.093 149.448 116.274C149.994 114.5 150.54 113 150.95 111.635C151.905 108.906 152.588 106.996 152.588 106.996L164.6 128.554L161.46 139.742ZM138.528 103.039C138.528 103.039 137.436 106.314 135.935 111.226C135.252 113.682 134.297 116.411 133.614 119.549C132.795 122.551 132.113 125.825 131.294 129.1C130.884 130.737 130.611 132.238 130.338 133.875C130.065 135.512 129.792 137.013 129.519 138.514C128.973 141.516 128.564 144.245 128.291 146.7C127.881 149.02 127.745 151.067 127.608 152.431C127.472 153.795 127.335 154.614 127.335 154.614L111.228 135.922C111.228 135.922 111.501 133.739 112.047 130.464C112.593 127.19 113.549 122.96 114.504 118.594C115.05 116.411 115.46 114.228 116.006 112.181C116.552 110.134 117.098 108.224 117.507 106.587C118.463 103.312 119.145 101.129 119.145 101.129C119.964 98.4005 122.831 96.4903 125.561 96.7632C125.561 96.7632 128.018 97.0361 130.475 97.3089C132.932 97.5818 135.389 97.8547 135.389 97.8547C137.982 98.1276 139.484 100.584 138.528 103.039ZM181.526 158.98L193.538 180.538C193.538 180.538 190.535 179.173 185.757 177.4C183.3 176.445 180.57 175.626 177.567 174.534C174.564 173.579 171.152 172.488 167.739 171.669C164.327 170.85 160.914 170.032 157.638 169.35C154.362 168.804 151.359 168.258 148.629 167.849C145.899 167.439 143.579 167.167 142.077 167.03C140.439 166.894 139.62 166.757 139.62 166.757C137.3 166.484 135.389 164.438 135.662 162.118C135.662 162.118 135.798 159.935 136.071 157.752C136.344 155.569 136.617 153.386 136.617 153.386C136.89 150.93 139.211 149.156 141.531 149.566L181.526 158.98ZM170.879 196.911C170.879 198.002 170.469 198.821 169.787 199.367C169.104 199.912 168.285 200.185 167.193 199.912L166.101 199.639L149.994 180.947C149.994 180.947 151.086 181.084 152.724 181.356C153.543 181.493 154.499 181.629 155.454 181.766C156.41 181.902 157.502 182.175 158.594 182.312C162.962 183.13 167.057 184.085 167.057 184.085C169.241 184.631 170.742 186.814 170.742 188.997C170.742 188.997 170.742 190.907 170.742 192.954C170.879 194.864 170.879 196.911 170.879 196.911Z" fill="#EFD040"/>
<path d="M200.909 120.914C199.817 122.96 197.36 124.052 195.176 123.097C195.176 123.097 193.128 122.278 191.081 121.323C189.033 120.504 186.986 119.686 186.986 119.686C184.665 118.867 183.573 116.275 184.529 113.955C184.529 113.955 187.532 107.27 191.081 100.311C194.63 93.6255 198.725 86.9399 198.725 86.9399L206.096 110.544L200.909 120.914ZM185.894 80.3908C185.894 80.3908 185.485 81.073 184.666 82.4374C183.983 83.8018 182.891 85.5755 181.663 87.895C180.434 90.0781 179.069 92.8069 177.704 95.5357C176.339 98.2645 174.974 101.403 173.609 104.404C172.926 105.905 172.244 107.406 171.698 108.907C171.016 110.408 170.469 111.772 169.923 113.273C168.831 116.138 167.876 118.731 167.057 121.05C165.419 125.553 164.6 128.554 164.6 128.554L152.588 106.997C152.588 106.997 152.724 106.451 153.134 105.632C153.407 104.677 153.953 103.449 154.499 101.948C155.727 98.9467 157.365 94.8535 159.276 90.7602C161.051 86.667 163.098 82.7103 164.736 79.7086C166.374 76.7069 167.33 74.6603 167.33 74.6603C168.695 72.2043 171.971 70.9764 174.564 71.7951C174.564 71.7951 176.885 72.4772 179.342 73.2959C181.663 73.9781 183.983 74.9332 183.983 74.9332C186.44 75.4789 187.259 78.2077 185.894 80.3908ZM216.743 143.836L224.114 167.44C224.114 167.44 221.384 165.53 217.153 162.801C216.061 162.119 214.832 161.437 213.603 160.618C212.375 159.936 211.01 159.117 209.645 158.298C206.915 156.798 203.775 155.024 200.636 153.523C194.357 150.521 187.805 147.656 182.754 145.882C180.161 144.927 177.977 144.245 176.476 143.699C174.974 143.153 174.018 142.881 174.018 142.881C171.834 142.198 170.47 139.742 171.016 137.423C171.016 137.423 171.152 136.877 171.425 136.059C171.698 135.24 171.971 134.285 172.244 133.193C172.926 131.147 173.609 129.1 173.609 129.1C174.428 126.781 176.885 125.416 179.206 126.235L216.743 143.836ZM198.725 178.764C198.316 180.948 196.541 181.766 194.63 180.948L193.675 180.538L181.663 158.981C181.663 158.981 182.754 159.39 184.256 159.936C185.757 160.481 187.805 161.3 189.853 162.119C191.9 162.937 193.811 163.756 195.313 164.438C195.995 164.711 196.678 164.984 197.087 165.257C197.497 165.53 197.77 165.53 197.77 165.53C199.817 166.485 200.909 169.077 200.5 171.124C200.5 171.124 200.363 171.533 200.226 172.352C200.09 173.034 199.954 173.989 199.681 175.081C198.998 176.854 198.725 178.764 198.725 178.764Z" fill="#EFD040"/>
<path d="M243.497 110.544C242.814 111.499 241.722 112.045 240.63 112.181C239.538 112.318 238.31 112.181 237.354 111.499C237.354 111.499 235.58 110.271 233.805 109.043C231.894 107.815 230.12 106.587 230.12 106.587C228.072 105.223 227.526 102.494 228.891 100.584C228.891 100.584 229.983 99.0828 231.621 96.8998C233.259 94.7167 235.58 91.5786 238.037 88.7134C240.494 85.8481 243.087 82.8464 244.998 80.7998C245.954 79.7083 246.773 78.7532 247.455 78.2074C248.001 77.5252 248.411 77.2524 248.411 77.2524L250.868 101.812L243.497 110.544ZM236.945 67.8379C236.945 67.8379 236.399 68.5201 235.307 69.6117C234.351 70.7032 232.85 72.3405 231.212 74.2507C227.936 78.2074 223.704 83.2557 219.882 88.7134C217.971 91.4422 216.06 94.0345 214.422 96.6269C212.784 99.2193 211.283 101.675 210.054 103.722C208.826 105.768 207.87 107.542 207.188 108.634C206.505 109.862 206.096 110.544 206.096 110.544L198.725 86.9396C198.725 86.9396 198.998 86.3938 199.544 85.7116C200.09 84.893 200.772 83.8015 201.728 82.4371C203.502 79.7083 205.959 76.0244 208.553 72.3405C211.146 68.793 214.013 65.2455 216.06 62.5167C217.152 61.1523 218.108 60.0608 218.654 59.2422C219.336 58.4235 219.609 58.0142 219.609 58.0142C221.384 55.9676 224.933 55.2854 227.253 56.6498C227.253 56.6498 229.437 57.8778 231.621 58.9693C232.713 59.5151 233.805 60.1972 234.488 60.743C235.307 61.2888 235.853 61.5617 235.853 61.5617C238.446 63.199 238.719 65.9278 236.945 67.8379ZM254.28 136.195L256.737 160.754C256.737 160.754 256.191 160.208 255.099 159.117C254.144 158.025 252.642 156.661 250.731 154.887C247.046 151.203 241.995 146.837 236.399 142.471C233.669 140.288 230.802 138.378 228.072 136.468C226.707 135.513 225.342 134.557 224.114 133.739C222.749 132.92 221.52 132.101 220.428 131.419C215.787 128.554 212.511 126.78 212.511 126.78C211.419 126.235 210.737 125.279 210.464 124.188C210.191 123.096 210.191 121.868 210.737 120.913C210.737 120.913 211.829 119.003 212.784 117.093C213.876 115.183 214.968 113.273 214.968 113.273C215.514 112.181 216.606 111.499 217.698 111.226C218.79 110.953 220.019 111.09 221.111 111.772L254.28 136.195ZM229.437 166.757C228.618 168.804 226.707 169.35 224.933 167.985C224.933 167.985 224.66 167.849 224.523 167.713C224.25 167.576 224.114 167.44 224.114 167.44L216.743 143.835C216.743 143.835 217.016 143.972 217.425 144.245C217.835 144.518 218.381 144.927 219.063 145.336C220.428 146.291 222.339 147.383 224.114 148.611C225.888 149.839 227.663 151.067 228.891 151.885C230.256 152.84 231.075 153.523 231.075 153.523C232.85 154.887 233.396 157.616 232.577 159.526C232.577 159.526 232.44 159.935 232.031 160.618C231.758 161.3 231.348 162.118 230.939 163.074C230.256 164.984 229.437 166.757 229.437 166.757Z" fill="#EFD040"/>
<path d="M287.177 108.907C286.221 109.725 285.129 109.998 284.037 109.998C282.945 109.998 281.853 109.453 281.034 108.634C281.034 108.634 279.533 106.997 278.031 105.496C276.53 103.858 274.892 102.358 274.892 102.358C273.117 100.584 273.117 97.855 274.892 96.2177C274.892 96.2177 276.257 94.9898 278.304 93.0796C280.352 91.1694 283.218 88.7135 286.221 86.2576C292.091 81.6186 298.506 76.9796 298.506 76.9796L296.049 101.539L287.177 108.907ZM289.361 65.7915C289.361 65.7915 286.631 67.7016 282.536 70.9762C278.577 74.1143 273.39 78.344 268.613 82.8466C266.156 85.0296 263.835 87.3491 261.651 89.3957C259.467 91.5787 257.556 93.6254 255.918 95.3991C252.642 98.9466 250.595 101.266 250.595 101.266L248.138 76.7067C248.138 76.7067 249.639 75.2059 251.96 72.8864C254.28 70.5669 257.42 67.4288 260.696 64.4271C263.972 61.5618 267.384 58.5601 269.978 56.377C271.343 55.2855 272.435 54.3305 273.117 53.7847C273.936 53.2389 274.346 52.8296 274.346 52.8296C276.53 51.1923 280.079 51.1923 282.126 52.966C282.126 52.966 284.037 54.6034 285.812 56.1042C286.767 56.9229 287.586 57.7414 288.269 58.4236C288.951 59.1058 289.361 59.5152 289.361 59.5152C291.681 61.4254 291.545 64.2906 289.361 65.7915ZM292.637 136.195L290.18 160.754C290.18 160.754 288.405 158.025 285.539 153.796C282.672 149.43 278.577 144.245 273.936 138.787C271.616 136.195 269.295 133.603 266.975 131.147C265.746 129.919 264.654 128.827 263.562 127.599C262.47 126.508 261.378 125.552 260.423 124.597C256.464 120.913 253.598 118.458 253.598 118.458C251.823 116.82 251.55 114.091 253.052 112.318C253.052 112.318 254.417 110.68 255.918 109.043C257.42 107.406 258.785 105.769 258.785 105.769C259.604 104.813 260.696 104.404 261.924 104.268C263.016 104.268 264.245 104.677 265.2 105.496L292.637 136.195ZM262.197 161.164C260.969 162.937 258.921 163.074 257.556 161.573L256.737 160.754L254.28 136.195C254.28 136.195 257.556 139.333 260.559 142.335C262.061 143.836 263.562 145.336 264.654 146.564C265.746 147.792 266.429 148.611 266.429 148.611C267.93 150.248 267.93 152.977 266.702 154.751C266.702 154.751 266.429 155.16 266.019 155.706C265.61 156.252 265.064 157.07 264.518 157.889C263.289 159.526 262.197 161.164 262.197 161.164Z" fill="#EFD040"/>
<path d="M330.311 116.001C329.219 116.547 328.127 116.683 327.035 116.41C325.943 116.138 324.988 115.455 324.305 114.5C324.305 114.5 323.077 112.59 321.985 110.816C320.756 108.906 319.528 107.133 319.528 107.133C318.163 105.086 318.709 102.357 320.756 101.129C320.756 101.129 322.394 100.174 324.715 98.8097C327.172 97.4453 330.448 95.5351 333.86 93.7614C337.273 91.9876 340.685 90.3503 343.415 89.1223C344.78 88.4401 345.872 88.0308 346.691 87.6215C347.51 87.2122 347.92 87.0757 347.92 87.0757L340.549 110.68L330.311 116.001ZM341.231 74.2504C341.231 74.2504 340.412 74.6597 339.047 75.2055C337.682 75.7512 335.771 76.8427 333.451 77.9343C328.946 80.2538 323.077 83.2555 317.344 86.8029C314.477 88.5766 311.747 90.2139 309.29 91.8512C306.697 93.6249 304.376 95.2622 302.465 96.6266C300.554 97.991 298.916 99.219 297.824 100.038C296.732 100.856 296.05 101.402 296.05 101.402L298.507 76.8427C298.507 76.8427 298.916 76.5698 299.735 76.0241C300.554 75.4783 301.646 74.7961 303.011 73.841C305.741 72.0673 309.427 69.6113 313.249 67.2918C317.071 65.1088 321.029 62.9258 324.032 61.2885C325.534 60.4698 326.762 59.7876 327.718 59.3783C328.673 58.969 329.083 58.6961 329.083 58.6961C331.54 57.4681 334.952 58.2867 336.727 60.4698C336.727 60.4698 338.228 62.38 339.73 64.2902C340.549 65.2453 341.231 66.3368 341.777 67.019C342.323 67.8377 342.733 68.2469 342.733 68.2469C344.371 70.5664 343.552 73.1588 341.231 74.2504ZM330.175 143.835L322.804 167.439C322.804 167.439 322.667 167.303 322.667 166.894C322.531 166.484 322.258 165.938 322.121 165.393C321.575 164.028 320.893 162.118 319.801 159.799C317.89 155.023 314.887 149.02 311.474 142.744C309.836 139.742 307.925 136.74 306.151 133.875C305.195 132.511 304.376 131.01 303.557 129.782C302.738 128.554 301.783 127.326 301.1 126.234C297.961 121.868 295.64 118.866 295.64 118.866C294.139 116.956 294.412 114.227 296.323 112.727C296.323 112.727 297.961 111.362 299.735 109.998C301.51 108.633 303.284 107.269 303.284 107.269C304.24 106.587 305.468 106.314 306.56 106.45C307.652 106.587 308.744 107.269 309.427 108.224L330.175 143.835ZM295.367 162.255C293.866 163.755 291.818 163.483 290.726 161.709L290.18 160.754L292.637 136.194C292.637 136.194 292.774 136.467 293.047 136.877C293.32 137.286 293.729 137.832 294.139 138.514C295.094 139.878 296.323 141.652 297.415 143.562C298.643 145.336 299.735 147.246 300.554 148.474C301.373 149.838 301.919 150.794 301.919 150.794C303.011 152.704 302.465 155.433 300.964 156.933C300.964 156.933 300.554 157.206 300.008 157.752C299.462 158.298 298.78 158.844 298.097 159.526C296.869 160.89 295.367 162.255 295.367 162.255Z" fill="#EFD040"/>
<path d="M371.124 131.829C368.804 132.648 366.483 131.283 365.528 129.1C365.528 129.1 364.709 127.054 364.026 125.007C363.207 122.96 362.388 120.914 362.388 120.914C361.433 118.594 362.525 116.138 364.845 115.32C364.845 115.32 366.62 114.774 369.213 113.819C371.943 113 375.492 111.636 379.178 110.681C382.863 109.726 386.549 108.77 389.415 108.088C390.917 107.679 392.009 107.542 392.828 107.27C393.647 107.133 394.193 106.997 394.193 106.997L382.181 128.554L371.124 131.829ZM390.234 93.0798C390.234 93.0798 389.415 93.2162 387.914 93.6256C386.412 94.0349 384.365 94.4442 381.908 95.1264C379.451 95.8086 376.584 96.6272 373.581 97.5823C372.08 97.9916 370.578 98.5374 369.077 98.9467C367.575 99.4924 365.937 100.038 364.436 100.584C361.296 101.676 358.293 102.903 355.427 103.995C352.56 105.087 349.967 106.315 347.783 107.27C343.415 109.316 340.548 110.681 340.548 110.681L347.919 87.0763C347.919 87.0763 349.967 86.2577 352.97 85.0297C355.973 83.8018 360.204 82.1645 364.299 80.6637C368.531 79.2993 372.762 77.9349 376.038 76.9798C377.676 76.434 379.041 76.1611 379.997 75.8883C380.952 75.6154 381.498 75.4789 381.498 75.4789C384.092 74.7967 387.368 76.2976 388.596 78.7535C388.596 78.7535 388.869 79.2992 389.279 80.1179C389.688 80.9365 390.234 82.0281 390.78 83.1196C391.736 85.3027 392.828 87.6221 392.828 87.6221C394.193 89.9416 392.828 92.3976 390.234 93.0798ZM365.391 158.981L353.379 180.538C353.379 180.538 353.243 179.72 353.106 178.219C352.833 176.718 352.56 174.808 352.014 172.215C351.468 169.759 350.922 166.758 350.103 163.62C349.284 160.481 348.329 157.207 347.373 153.796C347.1 152.977 346.827 152.159 346.554 151.203C346.281 150.385 346.008 149.566 345.735 148.748C345.189 147.11 344.643 145.473 343.961 143.972C342.732 140.834 341.64 137.832 340.548 135.376C338.364 130.465 336.726 127.054 336.726 127.054C335.634 124.87 336.453 122.278 338.637 121.187C338.637 121.187 340.548 120.231 342.459 119.276C344.507 118.321 346.418 117.366 346.418 117.366C347.51 116.82 348.738 116.82 349.83 117.23C350.922 117.639 351.878 118.458 352.287 119.549L365.391 158.981ZM327.581 170.032C325.806 171.26 323.895 170.578 323.076 168.531L322.667 167.44L330.038 143.836C330.038 143.836 331.812 147.929 333.314 151.886C334.952 155.842 336.18 159.936 336.18 159.936C336.863 161.982 335.771 164.575 333.996 165.666C333.996 165.666 332.358 166.621 330.72 167.713C329.219 168.941 327.581 170.032 327.581 170.032Z" fill="#EFD040"/>
<path d="M407.979 155.433C405.522 155.706 403.475 154.069 403.066 151.613C403.066 151.613 402.929 151.067 402.792 150.248C402.656 149.43 402.519 148.338 402.246 147.246C401.837 145.063 401.427 142.88 401.427 142.88C401.018 140.424 402.519 138.241 404.976 137.832C404.976 137.832 406.887 137.559 409.618 137.15C410.983 137.013 412.757 136.741 414.395 136.604C416.17 136.468 418.08 136.331 419.991 136.195C423.813 135.922 427.772 135.649 430.638 135.649C433.505 135.649 435.553 135.649 435.553 135.649L419.582 154.478L407.979 155.433ZM434.461 121.323C434.461 121.323 431.048 121.323 425.998 121.596C423.404 121.732 420.538 122.005 417.398 122.278C414.259 122.551 410.982 122.824 407.706 123.369C404.43 123.915 401.154 124.324 398.151 124.87C396.65 125.143 395.285 125.416 393.92 125.689C392.555 125.962 391.327 126.235 390.098 126.507C385.457 127.599 382.317 128.418 382.317 128.418L394.329 106.86C394.329 106.86 396.514 106.451 399.653 105.768C402.929 105.223 407.297 104.404 411.665 103.858C416.033 103.313 420.538 102.767 423.95 102.494C427.363 102.221 429.546 102.085 429.546 102.085C432.276 101.948 435.143 103.995 435.826 106.587C435.826 106.587 436.371 109.043 437.054 111.363C437.6 113.819 438.146 116.138 438.146 116.138C438.965 119.14 437.191 121.186 434.461 121.323ZM396.786 180.947L380.679 199.64C380.679 199.64 380.679 198.821 380.816 197.32C380.952 195.819 380.952 193.773 380.952 191.18C380.952 188.724 380.952 185.723 380.816 182.448C380.679 179.174 380.406 175.899 379.997 172.352C379.86 170.578 379.587 168.804 379.451 167.167C379.178 165.53 378.905 163.756 378.632 162.118C378.086 158.844 377.54 155.706 376.994 152.977C375.902 147.792 374.946 144.108 374.946 144.108C374.4 141.789 375.629 139.333 377.949 138.787C377.949 138.787 379.997 138.241 382.181 137.696C384.365 137.15 386.412 136.604 386.412 136.604C388.733 136.058 391.19 137.559 391.736 140.015L396.786 180.947ZM357.611 183.949C355.563 184.768 353.789 183.813 353.516 181.63L353.379 180.538L365.391 158.98C365.391 158.98 366.347 163.346 367.029 167.576C367.439 169.623 367.712 171.806 367.848 173.443C367.985 175.08 368.121 176.172 368.121 176.172C368.394 178.355 366.893 180.674 364.846 181.357C364.846 181.357 363.071 182.039 361.16 182.721C360.204 182.994 359.386 183.403 358.703 183.676C358.021 183.813 357.611 183.949 357.611 183.949Z" fill="#EFD040"/>
<path d="M439.375 185.995C436.918 185.859 435.143 183.676 435.28 181.357C435.28 181.357 435.28 180.811 435.416 179.992C435.416 179.173 435.553 178.082 435.553 176.99C435.553 174.807 435.689 172.624 435.689 172.624C435.689 170.168 437.737 168.258 440.194 168.395C440.194 168.395 442.105 168.531 444.971 168.668C447.838 168.94 451.523 169.35 455.345 169.759C457.256 170.032 459.167 170.305 460.942 170.578C462.716 170.851 464.354 171.124 465.856 171.396C468.722 171.942 470.633 172.351 470.633 172.351L451.114 187.496L439.375 185.995ZM472.135 157.752C472.135 157.752 468.722 157.207 463.672 156.388C462.443 156.251 461.078 155.979 459.713 155.842C458.212 155.706 456.71 155.569 455.209 155.296C452.069 155.023 448.793 154.751 445.517 154.478C442.241 154.205 438.965 154.205 435.962 154.068C432.959 154.068 430.093 153.932 427.772 154.068C422.858 154.205 419.719 154.341 419.719 154.341L435.826 135.649C435.826 135.649 438.01 135.649 441.286 135.649C444.562 135.649 448.93 135.922 453.434 136.195C455.618 136.331 457.939 136.468 459.986 136.74C462.17 136.877 464.081 137.15 465.719 137.423C469.132 137.832 471.316 138.241 471.316 138.241C474.046 138.651 476.503 141.243 476.639 143.972C476.639 143.972 476.776 146.428 476.912 148.884C477.049 151.34 477.049 153.796 477.049 153.796C476.912 156.524 474.728 158.298 472.135 157.752ZM423.268 208.781L403.748 223.926C403.748 223.926 404.567 220.788 405.659 215.74C406.205 213.284 406.615 210.418 407.161 207.144C407.434 205.506 407.707 203.869 407.843 202.232C407.98 200.595 408.253 198.821 408.389 197.047C408.526 195.273 408.662 193.5 408.799 191.862C408.935 190.089 409.072 188.315 409.072 186.814C409.208 183.54 409.208 180.401 409.208 177.673C409.208 174.944 409.072 172.761 409.072 171.123C408.935 169.486 408.935 168.668 408.935 168.668C408.799 166.348 410.573 164.165 413.03 164.029C413.03 164.029 415.214 163.892 417.398 163.756C419.582 163.619 421.766 163.619 421.766 163.619C424.223 163.619 426.271 165.529 426.271 167.985L423.268 208.781ZM384.229 203.869C382.181 204.142 380.543 202.914 380.68 200.731L380.68 199.64L396.787 180.947C396.787 180.947 396.787 182.039 396.787 183.676C396.787 185.313 396.787 187.496 396.65 189.679C396.514 194.045 396.104 198.275 396.104 198.275C395.968 200.458 393.92 202.368 391.736 202.641C391.736 202.641 389.825 202.914 387.914 203.187C386.14 203.596 384.229 203.869 384.229 203.869Z" fill="#EFD040"/>
<path d="M463.945 222.153C461.624 221.471 460.259 219.151 460.942 216.832C460.942 216.832 461.488 214.649 462.034 212.602C462.58 210.419 462.989 208.236 462.989 208.236C463.535 205.917 465.856 204.416 468.176 204.962C468.176 204.962 470.087 205.371 472.681 206.19C475.411 207.008 478.96 208.1 482.645 209.328C484.556 209.873 486.331 210.556 487.969 211.238C489.607 211.92 491.245 212.466 492.61 213.012C495.34 214.103 497.114 214.922 497.114 214.922L475.001 225.837L463.945 222.153ZM501.755 201.141C501.755 201.141 500.936 200.868 499.571 200.323C498.206 199.777 496.159 199.095 493.702 198.14C491.245 197.321 488.515 196.229 485.512 195.411C482.509 194.456 479.233 193.501 476.093 192.682C474.455 192.273 472.954 191.863 471.452 191.454C469.814 191.045 468.313 190.772 466.811 190.362C463.808 189.68 461.078 189.134 458.758 188.725C456.437 188.316 454.39 187.907 453.025 187.77C451.66 187.634 450.841 187.497 450.841 187.497L470.36 172.216C470.36 172.216 472.544 172.625 475.684 173.307C478.823 173.99 483.055 175.081 487.423 176.309C491.791 177.401 496.022 178.901 499.162 179.993C502.438 181.084 504.622 181.903 504.622 181.903C507.215 182.722 508.99 185.86 508.58 188.589C508.58 188.589 508.171 191.045 507.761 193.501C507.625 194.729 507.352 195.956 507.215 196.775C507.079 197.73 506.942 198.276 506.942 198.276C506.533 200.868 504.076 202.233 501.755 201.141ZM443.606 241.255L421.493 252.17C421.493 252.17 422.995 249.305 425.042 244.529C426.134 242.21 427.226 239.481 428.318 236.479C428.864 234.978 429.41 233.341 430.093 231.84C430.366 231.022 430.639 230.203 430.912 229.384C431.185 228.566 431.458 227.747 431.731 226.928C432.686 223.654 433.642 220.243 434.597 216.968C435.416 213.694 436.099 210.692 436.645 208.1C437.191 205.507 437.6 203.188 437.873 201.551C438.146 199.913 438.283 199.095 438.283 199.095C438.556 196.775 440.74 195.001 443.197 195.411C443.197 195.411 443.743 195.411 444.562 195.547C445.381 195.684 446.473 195.82 447.565 195.957C449.749 196.366 451.933 196.639 451.933 196.639C454.253 197.048 456.028 199.368 455.618 201.823L443.606 241.255ZM406.342 228.702C405.25 228.702 404.431 228.293 404.021 227.611C403.475 226.928 403.339 225.973 403.612 225.018L403.885 223.927L423.404 208.782C423.404 208.782 423.131 209.873 422.858 211.511C422.585 213.148 422.039 215.195 421.493 217.378C420.401 221.607 419.309 225.701 419.309 225.701C419.036 226.792 418.217 227.611 417.398 228.293C416.443 228.975 415.351 229.248 414.259 229.248C414.259 229.248 412.348 229.112 410.3 228.975C408.253 228.702 406.342 228.702 406.342 228.702Z" fill="#EFD040"/>
<path d="M480.597 262.539C478.55 261.311 477.594 258.855 478.686 256.672C478.686 256.672 479.642 254.762 480.597 252.715C481.553 250.669 482.508 248.622 482.508 248.622C483.464 246.439 486.057 245.347 488.241 246.575C488.241 246.575 494.793 249.986 501.482 253.807C507.897 257.763 514.449 262.13 514.449 262.13L490.562 268.269L480.597 262.539ZM521.82 249.713C521.82 249.713 521.138 249.304 519.909 248.349C518.681 247.53 516.77 246.439 514.586 245.075C512.402 243.71 509.808 242.209 507.215 240.708C504.485 239.208 501.482 237.57 498.615 236.069C495.612 234.569 492.746 233.204 490.016 231.84C487.149 230.612 484.556 229.52 482.372 228.565C480.188 227.61 478.277 226.928 477.048 226.382C475.683 225.973 475.001 225.7 475.001 225.7L497.114 214.785C497.114 214.785 497.66 215.057 498.479 215.33C499.434 215.74 500.526 216.285 502.028 216.968C505.031 218.332 508.989 220.242 512.948 222.289C516.906 224.336 520.728 226.519 523.731 228.292C526.734 230.066 528.645 231.158 528.645 231.158C530.966 232.658 532.058 235.933 531.102 238.525C531.102 238.525 530.283 240.845 529.464 243.164C529.055 244.256 528.645 245.484 528.236 246.302C527.826 247.121 527.69 247.667 527.69 247.667C526.734 250.396 524.141 251.078 521.82 249.713ZM456.983 277.138L433.095 283.278C433.095 283.278 435.143 280.685 438.009 276.592C438.692 275.501 439.511 274.409 440.33 273.181C441.149 271.953 441.968 270.725 442.787 269.361C444.425 266.632 446.336 263.63 447.974 260.629C451.25 254.625 454.526 248.076 456.437 243.164C457.529 240.708 458.348 238.525 458.894 237.024C459.167 236.206 459.44 235.66 459.576 235.251C459.713 234.841 459.849 234.569 459.849 234.569C460.668 232.386 463.125 231.158 465.446 231.84C465.446 231.84 465.992 231.976 466.674 232.249C467.493 232.522 468.449 232.931 469.404 233.341C471.452 234.159 473.499 234.841 473.499 234.841C475.683 235.797 477.048 238.252 475.956 240.572L456.983 277.138ZM422.858 257.354C420.81 256.945 419.991 255.035 420.947 253.124L421.493 252.169L443.606 241.254C443.606 241.254 443.196 242.209 442.514 243.71C441.831 245.211 440.876 247.258 440.057 249.168C439.101 251.078 438.146 252.988 437.463 254.489C437.054 255.171 436.781 255.853 436.508 256.263C436.235 256.672 436.098 256.945 436.098 256.945C435.006 258.855 432.413 259.946 430.365 259.264C430.365 259.264 429.956 259.128 429.137 258.991C428.454 258.855 427.499 258.582 426.543 258.309C424.769 257.763 422.858 257.354 422.858 257.354Z" fill="#EFD040"/>
<path d="M488.788 305.517C487.832 304.698 487.423 303.607 487.286 302.515C487.15 301.424 487.423 300.196 488.105 299.377C488.105 299.377 489.47 297.603 490.835 295.966C492.2 294.192 493.429 292.419 493.429 292.419C494.93 290.372 497.66 289.963 499.571 291.464C499.571 291.464 501.073 292.692 503.12 294.465C505.304 296.239 508.171 298.695 511.037 301.287C513.767 303.88 516.634 306.609 518.681 308.655C519.773 309.747 520.592 310.565 521.138 311.111C521.684 311.793 522.094 312.066 522.094 312.066L497.387 313.294L488.788 305.517ZM531.785 301.151C531.785 301.151 531.239 300.605 530.147 299.514C529.192 298.422 527.554 296.921 525.643 295.284C521.821 291.873 517.043 287.37 511.72 283.277C509.126 281.231 506.533 279.184 504.076 277.41C501.619 275.636 499.298 273.999 497.251 272.635C495.203 271.27 493.565 270.179 492.473 269.497C491.245 268.814 490.699 268.269 490.699 268.269L514.586 262.129C514.586 262.129 521.548 267.041 528.646 272.635C532.058 275.5 535.47 278.365 538.064 280.685C539.292 281.776 540.385 282.731 541.204 283.414C541.886 284.096 542.296 284.505 542.296 284.505C544.207 286.415 544.753 289.963 543.251 292.282C543.251 292.282 542.023 294.329 540.658 296.512C539.975 297.603 539.292 298.559 538.746 299.377C538.2 300.196 537.928 300.605 537.928 300.605C536.426 302.925 533.696 303.061 531.785 301.151ZM462.716 315.068L438.01 316.296C438.01 316.296 438.692 315.75 439.784 314.795C440.876 313.84 442.377 312.475 444.288 310.702C448.11 307.291 452.752 302.379 457.393 297.058C459.713 294.465 461.761 291.736 463.945 289.008C464.9 287.643 465.992 286.415 466.948 285.187C467.903 283.959 468.722 282.731 469.405 281.64C472.408 277.137 474.455 273.999 474.455 273.999C475.684 271.953 478.414 271.27 480.461 272.498C480.461 272.498 482.372 273.59 484.146 274.818C486.057 276.046 487.832 277.137 487.832 277.137C488.924 277.82 489.47 278.775 489.743 280.003C490.016 281.094 489.743 282.322 489.061 283.414L462.716 315.068ZM433.368 288.735C431.457 287.78 430.911 285.87 432.276 284.232L432.959 283.414L456.846 277.274C456.846 277.274 456.71 277.547 456.437 277.956C456.164 278.365 455.754 278.911 455.208 279.593C454.253 280.958 452.888 282.731 451.66 284.505C450.295 286.279 449.066 287.916 448.111 289.144C447.019 290.372 446.336 291.191 446.336 291.191C444.971 292.828 442.241 293.374 440.33 292.419C440.33 292.419 439.921 292.146 439.238 291.873C438.556 291.6 437.736 291.054 436.781 290.645C435.143 289.553 433.368 288.735 433.368 288.735Z" fill="#EFD040"/>
<path d="M488.241 349.315C487.422 348.36 487.286 347.269 487.286 346.177C487.422 345.086 487.832 343.994 488.787 343.175C488.787 343.175 490.425 341.675 492.063 340.31C493.701 338.809 495.339 337.308 495.339 337.308C497.114 335.671 499.98 335.808 501.482 337.718C501.482 337.718 502.71 339.219 504.485 341.265C506.259 343.448 508.58 346.45 510.9 349.588C515.268 355.728 519.636 362.414 519.636 362.414L495.203 358.73L488.241 349.315ZM531.239 353.545C531.239 353.545 530.829 352.863 530.01 351.635C529.191 350.407 527.963 348.633 526.461 346.586C523.458 342.493 519.636 337.036 515.268 332.124C513.084 329.668 511.037 327.212 508.989 324.892C506.942 322.709 504.894 320.663 503.256 318.889C499.844 315.478 497.66 313.295 497.66 313.295L522.366 312.067C522.366 312.067 523.868 313.704 526.052 316.024C528.236 318.48 531.239 321.754 534.105 325.165C536.835 328.576 539.565 332.124 541.613 334.853C542.705 336.217 543.524 337.308 544.07 338.127C544.616 338.946 545.025 339.355 545.025 339.355C546.527 341.538 546.254 345.086 544.479 347.132C544.479 347.132 542.841 348.906 541.067 350.68C540.248 351.498 539.292 352.453 538.746 353.136C538.064 353.818 537.654 354.227 537.654 354.227C535.47 356.137 532.74 355.864 531.239 353.545ZM460.805 353.408L436.371 349.724C436.371 349.724 439.238 348.087 443.606 345.495C448.11 342.902 453.434 338.946 459.167 334.716C461.897 332.533 464.627 330.35 467.084 328.167C468.312 327.075 469.541 325.984 470.769 324.892C471.861 323.801 472.953 322.846 473.909 321.891C477.731 318.07 480.324 315.478 480.324 315.478C481.962 313.704 484.692 313.568 486.467 315.205C486.467 315.205 488.105 316.706 489.606 318.207C491.244 319.708 492.746 321.208 492.746 321.208C493.565 322.027 494.111 323.255 494.111 324.347C494.111 325.438 493.701 326.666 492.746 327.485L460.805 353.408ZM437.327 321.618C435.552 320.39 435.552 318.343 437.19 316.842L438.009 316.16L462.716 314.932C462.716 314.932 459.44 318.07 456.3 320.936C454.662 322.436 453.024 323.801 451.796 324.756C450.567 325.711 449.612 326.393 449.612 326.393C447.837 327.758 445.107 327.758 443.469 326.393C443.469 326.393 443.06 326.12 442.514 325.575C441.968 325.165 441.149 324.483 440.466 323.937C438.828 322.846 437.327 321.618 437.327 321.618Z" fill="#EFD040"/>
<path d="M478.959 392.022C478.413 390.93 478.413 389.702 478.686 388.747C478.959 387.656 479.642 386.701 480.734 386.155C480.734 386.155 482.645 385.063 484.556 383.972C486.467 382.88 488.378 381.789 488.378 381.789C490.562 380.561 493.155 381.243 494.384 383.426C494.384 383.426 495.203 385.063 496.568 387.519C497.796 389.975 499.571 393.386 501.209 396.934C502.71 400.345 504.212 404.029 505.304 406.621C505.85 407.985 506.259 409.077 506.669 409.896C506.942 410.714 507.078 411.124 507.078 411.124L483.873 402.528L478.959 392.022ZM520.182 404.984C520.182 404.984 519.909 404.165 519.363 402.801C518.817 401.436 517.998 399.39 516.906 397.07C514.859 392.431 512.129 386.428 508.853 380.561C507.215 377.696 505.713 374.83 504.212 372.238C502.574 369.646 501.072 367.19 499.844 365.28C498.479 363.233 497.387 361.596 496.704 360.504C495.885 359.413 495.476 358.73 495.476 358.73L519.909 362.414C519.909 362.414 524.414 369.646 528.645 377.696C530.693 381.652 532.604 385.609 534.105 388.747C534.788 390.248 535.47 391.613 535.88 392.568C536.289 393.523 536.426 393.932 536.426 393.932C537.518 396.388 536.562 399.799 534.242 401.436C534.242 401.436 532.194 402.801 530.283 404.302C528.236 405.666 526.188 407.03 526.188 407.03C523.731 408.258 521.138 407.44 520.182 404.984ZM451.25 390.385L428.045 381.789C428.045 381.789 428.864 381.516 430.228 381.107C431.594 380.697 433.505 380.015 435.962 379.06C438.282 378.241 441.285 377.15 444.152 375.922C447.018 374.694 450.294 373.193 453.434 371.692C456.573 370.191 459.576 368.554 462.579 366.917C464.081 366.098 465.446 365.28 466.811 364.461C468.176 363.642 469.404 362.96 470.496 362.141C475.001 359.276 478.14 357.093 478.14 357.093C480.051 355.729 482.781 356.138 484.283 358.048C484.283 358.048 485.511 359.822 486.74 361.596C487.968 363.369 489.197 365.28 489.197 365.28C489.879 366.235 490.152 367.463 489.879 368.691C489.606 369.782 488.924 370.874 487.968 371.556L451.25 390.385ZM434.597 354.774C433.095 353.136 433.504 351.226 435.415 350.135L436.371 349.589L460.805 353.273C460.805 353.273 460.532 353.409 460.122 353.682C459.713 353.955 459.167 354.364 458.348 354.774C456.983 355.592 455.071 356.82 453.16 357.912C451.249 359.003 449.475 360.095 447.974 360.777C446.472 361.459 445.517 362.005 445.517 362.005C443.469 362.96 440.875 362.414 439.51 360.641C439.51 360.641 439.238 360.231 438.692 359.686C438.282 359.14 437.6 358.321 436.917 357.639C435.825 356.274 434.597 354.774 434.597 354.774Z" fill="#EFD040"/>
<path d="M461.214 431.999C460.532 429.679 462.033 427.36 464.217 426.541C464.217 426.541 466.265 425.859 468.312 425.177C470.36 424.494 472.544 423.812 472.544 423.812C474.864 422.993 477.321 424.221 478.004 426.541C478.004 426.541 478.55 428.315 479.232 431.043C480.051 433.772 481.007 437.456 481.826 441.14C482.645 444.824 483.464 448.644 484.01 451.51C484.283 453.01 484.419 454.102 484.556 454.921C484.692 455.739 484.692 456.285 484.692 456.285L463.808 443.187L461.214 431.999ZM498.888 453.01C498.888 453.01 498.752 452.192 498.479 450.691C498.206 449.19 497.933 447.143 497.25 444.688C496.704 442.232 496.022 439.366 495.203 436.228C494.52 433.226 493.565 430.088 492.609 426.814C491.654 423.676 490.698 420.538 489.743 417.672C489.333 416.308 488.787 414.807 488.241 413.579C487.695 412.351 487.286 411.123 486.876 409.895C485.102 405.393 483.873 402.527 483.873 402.527L507.078 411.123C507.078 411.123 507.761 413.17 508.853 416.171C509.399 417.672 509.945 419.582 510.627 421.493C511.31 423.403 511.992 425.586 512.538 427.769C513.767 431.999 514.859 436.365 515.678 439.776C516.087 441.413 516.36 442.777 516.633 443.732C516.77 444.688 516.906 445.233 516.906 445.233C517.452 447.962 515.814 451.1 513.357 452.192C513.357 452.192 512.811 452.465 511.992 452.874C511.173 453.283 509.945 453.693 508.853 454.238C506.532 455.193 504.212 456.012 504.212 456.012C501.755 456.967 499.434 455.603 498.888 453.01ZM434.324 424.767L413.439 411.669C413.439 411.669 416.852 411.396 421.766 410.714C424.223 410.304 427.226 409.895 430.365 409.213C433.505 408.531 436.781 407.849 440.193 406.893C443.606 406.075 446.882 404.983 450.158 404.028C453.297 403.073 456.437 401.982 458.894 401.026C463.944 399.116 467.357 397.615 467.357 397.615C469.541 396.66 472.134 397.615 473.09 399.798C473.09 399.798 473.909 401.845 474.864 403.755C475.683 405.802 476.639 407.849 476.639 407.849C477.594 410.168 476.366 412.76 474.182 413.579L434.324 424.767ZM425.178 386.564C424.086 384.654 424.769 382.743 426.953 382.198L428.045 381.925L451.25 390.521C451.25 390.521 447.018 392.021 442.923 393.386C440.876 394.068 438.828 394.75 437.327 395.16C435.825 395.569 434.733 395.842 434.733 395.842C432.549 396.388 430.092 395.296 429.137 393.386C429.137 393.386 428.181 391.612 427.362 389.975C426.953 389.156 426.407 388.338 425.997 387.655C425.451 386.973 425.178 386.564 425.178 386.564Z" fill="#EFD040"/>
<path d="M435.689 467.473C435.552 465.017 437.327 462.971 439.784 462.834C439.784 462.834 440.33 462.834 441.149 462.698C441.968 462.561 443.06 462.425 444.152 462.288C446.336 462.016 448.52 461.743 448.52 461.743C450.977 461.47 453.161 463.107 453.434 465.563C453.434 465.563 453.57 467.473 453.843 470.202C454.116 473.067 454.253 476.751 454.253 480.571C454.253 484.392 454.389 488.349 454.253 491.214C454.116 494.079 454.116 496.126 454.116 496.126L436.235 479.071L435.689 467.473ZM468.449 495.716C468.449 495.716 468.585 492.305 468.585 487.257C468.585 484.801 468.449 481.799 468.312 478.661C468.176 475.523 468.039 472.249 467.766 468.974C467.493 465.699 467.084 462.425 466.674 459.423C466.538 457.922 466.265 456.421 466.128 455.057C465.992 453.693 465.719 452.328 465.446 451.237C464.627 446.461 463.944 443.46 463.944 443.46L484.829 456.558C484.829 456.558 485.102 458.741 485.648 461.879C485.921 463.516 486.057 465.427 486.33 467.473C486.603 469.52 486.74 471.703 486.876 473.886C487.149 478.252 487.559 482.891 487.559 486.302C487.559 489.713 487.695 491.896 487.695 491.896C487.695 494.625 485.511 497.49 482.918 498.036C482.918 498.036 480.461 498.445 478.004 498.991C475.547 499.4 473.226 499.81 473.226 499.81C470.36 500.219 468.449 498.309 468.449 495.716ZM410.709 455.057L392.828 438.002C392.828 438.002 393.647 438.138 395.148 438.275C396.65 438.411 398.697 438.684 401.291 438.684C403.748 438.821 406.751 438.957 410.027 438.957C410.846 438.957 411.665 438.957 412.484 438.957C413.303 438.957 414.122 438.957 414.941 438.957C416.579 438.957 418.353 438.821 420.128 438.821C421.902 438.684 423.677 438.684 425.451 438.548C427.226 438.411 428.864 438.275 430.502 438.002C433.778 437.593 436.917 437.183 439.647 436.774C444.971 435.955 448.52 435.137 448.52 435.137C450.84 434.727 453.161 436.092 453.707 438.411C453.707 438.411 454.116 440.594 454.662 442.641C455.072 444.824 455.481 447.007 455.481 447.007C455.891 449.327 454.253 451.783 451.796 452.192L410.709 455.057ZM409.754 415.762C409.071 413.716 410.163 411.942 412.347 411.805L413.439 411.669L434.324 424.767C434.324 424.767 429.956 425.449 425.724 425.995C423.677 426.268 421.356 426.405 419.855 426.541C418.217 426.677 417.125 426.677 417.125 426.677C414.941 426.814 412.757 425.177 412.074 423.13C412.074 423.13 411.528 421.22 410.982 419.446C410.709 418.491 410.436 417.672 410.163 416.854C409.89 416.171 409.754 415.762 409.754 415.762Z" fill="#EFD040"/>
<path d="M403.611 497.216C403.884 494.761 406.068 493.123 408.525 493.396C408.525 493.396 410.709 493.669 412.893 493.805C415.077 493.942 417.261 494.078 417.261 494.078C419.718 494.215 421.493 496.261 421.22 498.717C421.22 498.717 421.083 500.628 420.674 503.356C420.264 506.085 419.718 509.769 419.036 513.589C418.626 515.5 418.353 517.41 417.944 519.183C417.534 520.957 417.125 522.594 416.852 523.959C416.169 526.824 415.76 528.734 415.76 528.734L401.7 508.541L403.611 497.216ZM430.092 531.327C430.092 531.327 430.911 527.916 431.867 523.004C432.959 518.092 433.914 511.406 434.733 504.857C435.143 501.583 435.416 498.308 435.552 495.306C435.825 492.305 435.962 489.439 435.962 487.12C436.098 482.208 436.098 479.07 436.098 479.07L453.98 496.125C453.98 496.125 453.843 498.308 453.707 501.583C453.57 504.857 453.024 509.223 452.478 513.589C452.205 515.772 451.932 518.092 451.659 520.139C451.386 522.185 450.977 524.095 450.704 525.869C450.021 529.28 449.612 531.463 449.612 531.463C449.339 532.827 448.52 534.056 447.428 535.011C446.336 535.966 444.971 536.511 443.606 536.511C443.606 536.511 441.149 536.511 438.692 536.511C436.235 536.511 433.778 536.375 433.778 536.375C431.048 536.239 429.546 534.055 430.092 531.327ZM381.635 480.025L367.575 459.832C367.575 459.832 370.715 460.787 375.629 462.151C378.086 462.833 380.952 463.379 384.092 464.061C385.73 464.334 387.368 464.744 389.006 465.016C390.644 465.289 392.418 465.562 394.056 465.835C397.469 466.381 401.018 466.79 404.294 467.063C407.57 467.336 410.709 467.609 413.439 467.745C414.804 467.882 416.033 467.882 417.125 467.882C418.217 467.882 419.172 467.882 419.991 467.882C421.629 467.882 422.448 467.882 422.448 467.882C424.769 467.882 426.816 469.792 426.953 472.111C426.953 472.111 426.953 474.294 427.089 476.477C427.089 477.569 427.089 478.661 427.089 479.479C427.089 480.298 427.089 480.844 427.089 480.844C427.089 483.3 424.905 485.21 422.585 485.21L381.635 480.025ZM388.46 441.276C388.187 439.229 389.552 437.592 391.736 437.865L392.828 438.001L410.709 455.056C410.709 455.056 409.617 455.056 407.979 454.92C406.341 454.783 404.157 454.783 401.973 454.511C397.605 454.101 393.374 453.555 393.374 453.555C391.19 453.283 389.415 451.236 389.142 449.053C389.142 449.053 389.006 447.143 388.733 445.096C388.733 443.186 388.46 441.276 388.46 441.276Z" fill="#EFD040"/>
<path d="M366.21 520.002C367.029 517.819 369.486 516.455 371.807 517.273C371.807 517.273 373.854 517.956 376.038 518.638C377.13 518.911 378.222 519.32 379.041 519.456C379.86 519.729 380.406 519.866 380.406 519.866C382.727 520.548 384.092 522.867 383.409 525.323C383.409 525.323 383.273 525.733 383 526.551C382.727 527.37 382.317 528.461 381.908 529.689C380.952 532.282 379.587 535.829 378.222 539.513C376.857 543.061 375.219 546.472 373.991 549.2C372.762 551.929 371.943 553.703 371.943 553.703L362.252 531.054L366.21 520.002ZM385.184 558.751C385.184 558.751 385.593 557.933 386.139 556.568C386.685 555.204 387.504 553.294 388.596 550.838C389.552 548.518 390.644 545.789 391.872 542.924C392.964 539.922 394.056 536.784 395.012 533.646C397.196 527.506 398.697 521.094 399.926 516.455C400.199 515.363 400.472 514.272 400.745 513.317C400.881 512.361 401.154 511.543 401.291 510.861C401.564 509.496 401.7 508.678 401.7 508.678L415.76 528.871C415.76 528.871 415.214 531.054 414.395 534.192C413.439 537.33 412.211 541.56 410.846 545.789C410.436 546.881 410.163 547.972 409.754 548.928C409.344 550.019 408.935 550.974 408.662 551.929C407.843 553.839 407.16 555.75 406.614 557.25C405.386 560.389 404.43 562.572 404.43 562.572C403.338 565.164 400.199 566.665 397.469 566.256C397.469 566.256 395.012 565.71 392.691 565.3C391.463 565.028 390.234 564.755 389.415 564.618C388.46 564.482 387.914 564.209 387.914 564.209C385.184 563.663 384.092 561.071 385.184 558.751ZM348.192 498.717L338.501 476.068C338.501 476.068 341.367 477.705 345.872 480.025C346.964 480.571 348.329 481.253 349.557 481.799C350.922 482.345 352.287 483.027 353.789 483.709C355.29 484.391 356.792 484.937 358.43 485.619C360.068 486.301 361.706 486.983 363.344 487.529C366.62 488.757 369.896 489.849 373.172 490.804C376.448 491.759 379.314 492.578 382.044 493.26C384.638 493.942 386.958 494.488 388.46 494.761C389.961 495.034 390.917 495.306 390.917 495.306C393.237 495.716 394.875 498.035 394.466 500.355C394.466 500.355 394.329 500.9 394.193 501.719C394.056 502.538 393.783 503.629 393.647 504.721C393.237 506.904 392.691 508.95 392.691 508.95C392.145 511.27 389.688 512.907 387.368 512.361L348.192 498.717ZM362.525 462.151C362.661 459.968 364.436 458.877 366.483 459.559L367.575 459.832L381.635 480.025C381.635 480.025 377.403 479.07 373.172 477.706C368.94 476.478 364.982 475.113 364.982 475.113C362.934 474.431 361.433 471.975 361.706 469.792C361.706 469.792 361.842 467.882 362.115 465.835C362.388 464.061 362.525 462.151 362.525 462.151Z" fill="#EFD040"/>
<path d="M324.988 534.602C325.67 533.511 326.626 532.965 327.718 532.692C328.81 532.419 330.038 532.556 330.994 533.102C330.994 533.102 332.905 534.193 334.816 535.285C336.727 536.376 338.774 537.331 338.774 537.331C339.866 537.877 340.685 538.832 340.958 539.924C341.231 541.015 341.231 542.243 340.549 543.198C340.549 543.198 339.593 544.835 338.228 547.155C336.727 549.611 334.816 552.749 332.632 556.024C328.4 562.3 323.623 568.576 323.623 568.576L318.709 544.426L324.988 534.602ZM335.771 576.353C335.771 576.353 337.819 573.624 340.685 569.395C343.552 565.165 347.237 559.707 350.513 553.84C352.151 550.975 353.789 548.11 355.154 545.518C356.519 542.789 357.748 540.196 358.84 538.013C359.795 535.83 360.614 534.057 361.297 532.829C361.843 531.601 362.116 530.782 362.116 530.782L371.807 553.431C371.807 553.431 371.534 553.977 371.125 554.796C370.715 555.614 370.033 556.842 369.35 558.343C367.849 561.208 365.801 565.165 363.481 568.986C361.16 572.806 358.84 576.626 356.929 579.491C355.973 580.992 355.154 582.084 354.608 582.902C354.062 583.721 353.789 584.267 353.789 584.267C352.288 586.45 348.875 587.405 346.282 586.45C346.282 586.45 343.961 585.495 341.777 584.54C340.685 584.13 339.593 583.585 338.638 583.175C337.819 582.766 337.273 582.493 337.273 582.493C334.816 581.265 334.133 578.536 335.771 576.353ZM311.611 510.179L306.697 486.029C306.697 486.029 309.154 488.213 313.112 491.351C317.071 494.625 322.667 498.446 328.537 502.266C331.54 504.04 334.543 505.813 337.409 507.451C338.911 508.269 340.276 509.088 341.641 509.77C343.006 510.452 344.371 511.135 345.463 511.68C350.377 514 353.789 515.501 353.789 515.501C355.973 516.456 357.065 518.912 356.246 521.231C356.246 521.231 355.427 523.278 354.608 525.188C353.789 527.235 352.834 529.145 352.834 529.145C351.878 531.328 349.148 532.419 346.964 531.328L311.611 510.179ZM333.178 477.297C333.724 475.251 335.635 474.568 337.546 475.524L338.501 476.069L348.193 498.718C348.193 498.718 347.92 498.582 347.51 498.446C347.101 498.309 346.418 497.9 345.736 497.627C344.234 496.808 342.323 495.853 340.412 494.898C338.501 493.943 336.59 492.852 335.225 492.033C334.543 491.624 333.997 491.351 333.587 491.078C333.178 490.805 332.905 490.668 332.905 490.668C330.994 489.441 330.175 486.848 330.857 484.801C330.857 484.801 331.54 483.028 332.086 481.118C332.495 479.071 333.178 477.297 333.178 477.297Z" fill="#EFD040"/>
<path d="M281.581 540.605C282.4 539.787 283.492 539.241 284.584 539.241C285.676 539.104 286.768 539.514 287.723 540.332C287.723 540.332 289.361 541.697 290.999 543.198C292.774 544.562 294.412 546.063 294.412 546.063C296.323 547.564 296.596 550.429 294.958 552.203C294.958 552.203 293.729 553.567 291.818 555.614C289.907 557.66 287.314 560.526 284.584 563.118C279.124 568.439 273.254 573.624 273.254 573.624L273.254 548.928L281.581 540.605ZM283.765 583.72C283.765 583.72 284.447 583.175 285.539 582.22C286.631 581.265 288.133 579.764 290.044 577.99C293.729 574.443 298.37 569.803 302.738 564.755C304.922 562.299 306.97 559.843 309.017 557.524C310.928 555.204 312.703 552.885 314.068 550.975C316.934 547.154 318.709 544.562 318.709 544.562L323.623 568.712C323.623 568.712 322.258 570.349 320.21 572.942C318.163 575.398 315.296 578.945 312.293 582.22C309.29 585.494 306.151 588.769 303.83 591.225C302.602 592.453 301.646 593.408 300.964 594.226C300.281 594.909 299.872 595.318 299.872 595.318C297.961 597.228 294.412 597.501 292.091 595.864C292.091 595.864 290.044 594.499 287.996 592.998C287.041 592.316 285.949 591.498 285.266 590.952C284.584 590.406 284.038 589.997 284.038 589.997C281.854 588.223 281.854 585.494 283.765 583.72ZM273.391 513.999L273.391 489.304C273.391 489.304 275.438 491.896 278.714 495.716C281.99 499.673 286.631 504.585 291.682 509.497C294.275 511.953 296.869 514.136 299.326 516.319C300.554 517.41 301.919 518.502 303.011 519.457C304.24 520.412 305.332 521.231 306.424 522.049C310.655 525.324 313.795 527.507 313.795 527.507C315.706 528.871 316.388 531.6 315.023 533.51C315.023 533.51 313.795 535.284 312.566 537.058C311.338 538.832 309.973 540.605 309.973 540.605C309.29 541.56 308.198 542.243 307.106 542.379C306.014 542.515 304.786 542.243 303.83 541.56L273.391 513.999ZM301.237 486.029C302.192 484.119 304.24 483.709 305.878 485.21L306.697 486.029L311.611 510.179C311.611 510.179 308.062 507.45 304.786 504.721C303.148 503.357 301.51 501.993 300.281 500.901C299.053 499.809 298.234 499.127 298.234 499.127C296.596 497.626 296.323 494.898 297.415 492.987C297.415 492.987 297.688 492.578 298.097 491.896C298.507 491.214 298.916 490.395 299.462 489.576C300.281 487.803 301.237 486.029 301.237 486.029Z" fill="#EFD040"/>
</g>
<defs>
<clipPath id="clip0">
<rect width="644" height="546" fill="white" transform="translate(546) rotate(90)"/>
</clipPath>
</defs>
</svg>
