<svg width="36" height="37" viewBox="0 0 36 37" fill="none" xmlns="http://www.w3.org/2000/svg">
<path d="M0 36.1547L2.5438 26.8732C0.979708 24.1575 0.146098 21.0723 0.154692 17.9183C0.154692 8.03532 8.19861 0 18.0816 0C22.877 0 27.3803 1.86488 30.7577 5.25089C34.1437 8.6369 36.0086 13.1401 36 17.9269C36 27.81 27.956 35.8453 18.073 35.8453H18.0644C15.0652 35.8453 12.1174 35.089 9.49629 33.6624L0 36.1547ZM9.94318 30.4139L10.4846 30.7405C12.7706 32.0983 15.3917 32.8116 18.0644 32.8202H18.073C26.2802 32.8202 32.9663 26.1427 32.9663 17.9269C32.9663 13.9479 31.4194 10.2096 28.6092 7.39078C25.799 4.57197 22.052 3.02506 18.073 3.02506C9.85723 3.02506 3.17116 9.70254 3.17116 17.9183C3.17116 20.7286 3.95321 23.47 5.44855 25.8419L5.8009 26.4091L4.29696 31.9007L9.94318 30.4139Z" fill="white"/>
<path d="M0.627441 35.5277L3.08531 26.5642C1.57277 23.9431 0.773537 20.961 0.773537 17.9187C0.773537 8.37946 8.54245 0.619141 18.0731 0.619141C22.7052 0.619141 27.0452 2.42387 30.3109 5.68956C33.5766 8.95525 35.3727 13.3038 35.3727 17.9273C35.3727 27.4666 27.6038 35.2269 18.0731 35.2269H18.0645C15.1684 35.2269 12.3238 34.4964 9.79716 33.1214L0.627441 35.5277Z" fill="url(#paint0_linear)"/>
<path d="M0 36.1547L2.5438 26.8732C0.979708 24.1575 0.146098 21.0723 0.154692 17.9183C0.154692 8.03532 8.19861 0 18.0816 0C22.877 0 27.3803 1.86488 30.7577 5.25089C34.1437 8.6369 36.0086 13.1401 36 17.9269C36 27.81 27.956 35.8453 18.073 35.8453H18.0644C15.0652 35.8453 12.1174 35.089 9.49629 33.6624L0 36.1547ZM9.94318 30.4139L10.4846 30.7405C12.7706 32.0983 15.3917 32.8116 18.0644 32.8202H18.073C26.2802 32.8202 32.9663 26.1427 32.9663 17.9269C32.9663 13.9479 31.4194 10.2096 28.6092 7.39078C25.799 4.57197 22.052 3.02506 18.073 3.02506C9.85723 3.02506 3.17116 9.70254 3.17116 17.9183C3.17116 20.7286 3.95321 23.47 5.44855 25.8419L5.8009 26.4091L4.29696 31.9007L9.94318 30.4139Z" fill="url(#paint1_linear)"/>
<path fill-rule="evenodd" clip-rule="evenodd" d="M13.5956 10.4158C13.2604 9.66816 12.9081 9.65097 12.5901 9.64238C12.3323 9.63379 12.0315 9.63379 11.7307 9.63379C11.4299 9.63379 10.9487 9.74551 10.5361 10.1924C10.1236 10.6393 8.97205 11.7221 8.97205 13.9308C8.97205 16.1308 10.5791 18.2621 10.8026 18.5629C11.026 18.8637 13.905 23.5302 18.4511 25.3263C22.2325 26.8216 23.0059 26.5209 23.8224 26.4435C24.6474 26.3662 26.4693 25.3607 26.8474 24.3122C27.217 23.2638 27.217 22.37 27.1052 22.1809C26.9935 21.9919 26.6927 21.8801 26.2458 21.6567C25.799 21.4333 23.5989 20.3504 23.1864 20.1957C22.7739 20.041 22.4731 19.9723 22.1809 20.4192C21.8801 20.8661 21.0207 21.8715 20.7629 22.1723C20.5051 22.4731 20.2387 22.5075 19.7918 22.2841C19.3449 22.0606 17.9011 21.5879 16.1909 20.0582C14.8589 18.8723 13.9565 17.4027 13.6987 16.9558C13.4409 16.5089 13.6729 16.2683 13.8964 16.0449C14.094 15.8472 14.3432 15.5206 14.5667 15.2628C14.7901 15.005 14.8675 14.8159 15.0136 14.5151C15.1597 14.2144 15.0909 13.9565 14.9792 13.7331C14.8675 13.5096 13.9909 11.301 13.5956 10.4158Z" fill="white"/>
<defs>
<linearGradient id="paint0_linear" x1="17.9995" y1="35.5252" x2="17.9995" y2="0.617189" gradientUnits="userSpaceOnUse">
<stop stop-color="#20B038"/>
<stop offset="1" stop-color="#60D66A"/>
</linearGradient>
<linearGradient id="paint1_linear" x1="17.9996" y1="36.1505" x2="17.9996" y2="-0.0093238" gradientUnits="userSpaceOnUse">
<stop stop-color="#F9F9F9"/>
<stop offset="1" stop-color="white"/>
</linearGradient>
</defs>
</svg>
